<?xml version="1.0" encoding="UTF-8" standalone="no"?>
<!-- Created with Inkscape (http://www.inkscape.org/) -->

<svg
   xmlns:dc="http://purl.org/dc/elements/1.1/"
   xmlns:cc="http://creativecommons.org/ns#"
   xmlns:rdf="http://www.w3.org/1999/02/22-rdf-syntax-ns#"
   xmlns:svg="http://www.w3.org/2000/svg"
   xmlns="http://www.w3.org/2000/svg"
   xmlns:sodipodi="http://sodipodi.sourceforge.net/DTD/sodipodi-0.dtd"
   xmlns:inkscape="http://www.inkscape.org/namespaces/inkscape"
   width="130.10686mm"
   height="145.72282mm"
   viewBox="0 0 461.00855 516.34071"
   id="svg2"
   version="1.1"
   inkscape:version="0.91 r13725"
   sodipodi:docname="apple.svg">
  <defs
     id="defs4" />
  <sodipodi:namedview
     id="base"
     pagecolor="#ffffff"
     bordercolor="#666666"
     borderopacity="1.0"
     inkscape:pageopacity="0.0"
     inkscape:pageshadow="2"
     inkscape:zoom="0.15234169"
     inkscape:cx="-1514.6"
     inkscape:cy="1308.8708"
     inkscape:document-units="px"
     inkscape:current-layer="layer1"
     showgrid="false"
     showborder="false"
     inkscape:window-width="1440"
     inkscape:window-height="804"
     inkscape:window-x="0"
     inkscape:window-y="1"
     inkscape:window-maximized="1"
     showguides="true"
     inkscape:guide-bbox="true"
     fit-margin-top="0"
     fit-margin-left="0"
     fit-margin-right="0"
     fit-margin-bottom="0">
    <inkscape:grid
       type="xygrid"
       id="grid8867"
       originx="-918.19409"
       originy="-753.20743" />
  </sodipodi:namedview>
  <metadata
     id="metadata7">
    <rdf:RDF>
      <cc:Work
         rdf:about="">
        <dc:format>image/svg+xml</dc:format>
        <dc:type
           rdf:resource="http://purl.org/dc/dcmitype/StillImage" />
        <dc:title></dc:title>
      </cc:Work>
    </rdf:RDF>
  </metadata>
  <g
     inkscape:label="Layer 1"
     inkscape:groupmode="layer"
     id="layer1"
     transform="translate(-918.19408,217.18595)">
    <g
       id="g3766"
       inkscape:export-xdpi="90"
       inkscape:export-ydpi="90">
      <path
         style="fill:#4d4d4d;fill-opacity:1;fill-rule:evenodd;stroke:#5d5086;stroke-width:1px;stroke-linecap:butt;stroke-linejoin:miter;stroke-opacity:1"
         d="M 924.15831,169.5296 1372.8446,-87.22772 c -1.6436,-6.23722 -5.6577,-9.31707 -12.1218,-15.15229 l -194.0719,-110.75964 c -14.0207,-5.63206 -25.7217,-3.97373 -36.4215,0.83158 l -187.94962,107.55061 c -15.79817,10.51595 -18.80265,18.35505 -22.16208,34.8809 l -1.42332,223.31025 c 1.01596,5.36531 2.11613,10.73061 5.46393,16.09591 z"
         id="path3704"
         inkscape:connector-curvature="0"
         sodipodi:nodetypes="ccccccccc" />
      <path
         style="fill:#333333;fill-opacity:1;fill-rule:evenodd;stroke:#453a62;stroke-width:1px;stroke-linecap:butt;stroke-linejoin:miter;stroke-opacity:1"
         d="m 1149.0372,41.09229 223.6288,129.95254 c -0.9968,3.31503 -3.6085,6.30709 -6.9791,9.14738 L 1167.1,295.79866 c -12.9599,3.75945 -24.7763,3.85932 -35.3553,0 L 935.26999,182.1565 c -1.06792,-0.38487 -7.28067,-6.71401 -11.08104,-12.80547 z"
         id="path3706"
         inkscape:connector-curvature="0"
         sodipodi:nodetypes="cccccccc" />
      <path
         style="fill:#666666;fill-opacity:1;fill-rule:evenodd;stroke:#8f4d8b;stroke-width:1px;stroke-linecap:butt;stroke-linejoin:miter;stroke-opacity:1"
         d="m 1148.9985,41.02542 223.9286,-128.21428 c 3.6529,3.69569 4.49,9.26857 5.3571,14.82142 l 0.3572,227.32143 c 0.5262,4.80891 -2.5059,10.50743 -5.7143,16.25 z"
         id="path3708"
         inkscape:connector-curvature="0"
         sodipodi:nodetypes="cccccc" />
      <g
         transform="translate(227.43762,-712.48315)"
         id="g3762">
        <path
           style="fill:#ffffff;fill-rule:evenodd;stroke:#ffffff;stroke-width:1px;stroke-linecap:butt;stroke-linejoin:miter;stroke-opacity:1"
           d="m 913.24309,662.61336 c 3.05829,-17.68268 0.36338,-28.79322 15.58996,-56.61615 24.10081,-19.07469 39.64906,-26.24525 56.61615,-26.25676 -4.57836,17.82561 0.95485,31.3177 -17.23101,54.9751 -14.07593,19.28435 -30.11969,24.56163 -54.9751,27.89781 z"
           id="path3758"
           inkscape:connector-curvature="0"
           sodipodi:nodetypes="ccccc" />
        <path
           style="fill:#ffffff;fill-rule:evenodd;stroke:#ffffff;stroke-width:1px;stroke-linecap:butt;stroke-linejoin:miter;stroke-opacity:1"
           d="m 846.78066,658.51074 c -63.63144,14.1718 -69.92804,70.03259 -72.2061,92.71919 -5.12748,57.59229 18.12734,93.35204 40.69475,129.64058 10.51159,14.90301 20.54231,30.04646 43.81921,38.56682 25.95288,-1.69818 67.94322,-22.8174 85.33448,-12.30786 24.68651,10.13974 48.19071,17.6784 62.0964,4.10042 24.4187,-16.07144 41.2931,-47.83179 57.7001,-82.87071 -88.53583,-57.3117 -28.8063,-123.95502 -9.8463,-135.38644 -13.7587,-15.354 -31.5328,-40.70275 -76.30872,-34.462 -38.0651,11.32452 -47.75704,18.73832 -69.87774,11.14089 -23.11575,-7.93919 -43.73187,-13.00938 -61.40608,-11.14089 z"
           id="path3760"
           inkscape:connector-curvature="0"
           sodipodi:nodetypes="cccccccccsc" />
      </g>
    </g>
  </g>
</svg>
