<?xml version="1.0" encoding="UTF-8" standalone="no"?>
<!-- Created with Inkscape (http://www.inkscape.org/) -->

<svg
   xmlns:dc="http://purl.org/dc/elements/1.1/"
   xmlns:cc="http://creativecommons.org/ns#"
   xmlns:rdf="http://www.w3.org/1999/02/22-rdf-syntax-ns#"
   xmlns:svg="http://www.w3.org/2000/svg"
   xmlns="http://www.w3.org/2000/svg"
   xmlns:xlink="http://www.w3.org/1999/xlink"
   xmlns:sodipodi="http://sodipodi.sourceforge.net/DTD/sodipodi-0.dtd"
   xmlns:inkscape="http://www.inkscape.org/namespaces/inkscape"
   width="210mm"
   height="297mm"
   viewBox="0 0 744.09448819 1052.3622047"
   id="svg2"
   version="1.1"
   inkscape:version="0.91 r13725"
   sodipodi:docname="general.svg">
  <defs
     id="defs4" />
  <sodipodi:namedview
     id="base"
     pagecolor="#ffffff"
     bordercolor="#666666"
     borderopacity="1.0"
     inkscape:pageopacity="0.0"
     inkscape:pageshadow="2"
     inkscape:zoom="0.21544369"
     inkscape:cx="182.5877"
     inkscape:cy="585.28278"
     inkscape:document-units="px"
     inkscape:current-layer="layer1"
     showgrid="false"
     showborder="false"
     inkscape:window-width="1440"
     inkscape:window-height="804"
     inkscape:window-x="0"
     inkscape:window-y="1"
     inkscape:window-maximized="1"
     showguides="true"
     inkscape:guide-bbox="true">
    <inkscape:grid
       type="xygrid"
       id="grid8867" />
  </sodipodi:namedview>
  <metadata
     id="metadata7">
    <rdf:RDF>
      <cc:Work
         rdf:about="">
        <dc:format>image/svg+xml</dc:format>
        <dc:type
           rdf:resource="http://purl.org/dc/dcmitype/StillImage" />
        <dc:title></dc:title>
      </cc:Work>
    </rdf:RDF>
  </metadata>
  <g
     inkscape:label="Layer 1"
     inkscape:groupmode="layer"
     id="layer1">
    <g
       id="g4370"
       transform="translate(-52,50)">
      <g
         id="g4225">
        <path
           style="fill:#669ad3;fill-opacity:1;fill-rule:evenodd;stroke:#669ad3;stroke-width:1px;stroke-linecap:butt;stroke-linejoin:miter;stroke-opacity:1"
           d="m -332.34019,370.50924 448.6863,-256.75732 c -1.64357,-6.23722 -5.65769,-9.31707 -12.12183,-15.15229 L -89.847557,-12.160007 c -14.020723,-5.632067 -25.721773,-3.973729 -36.421513,0.831581 L -314.21872,96.222183 c -15.79817,10.515947 -18.80265,18.355047 -22.16208,34.880897 l -1.42332,223.31025 c 1.01596,5.36531 2.11613,10.73061 5.46393,16.09591 z"
           id="path4219"
           inkscape:connector-curvature="0"
           sodipodi:nodetypes="ccccccccc" />
        <path
           style="fill:#004481;fill-opacity:1;fill-rule:evenodd;stroke:#004481;stroke-width:1px;stroke-linecap:butt;stroke-linejoin:miter;stroke-opacity:1"
           d="m -107.46132,242.07193 223.62886,129.95254 c -0.99688,3.31503 -3.60857,6.30709 -6.97915,9.14738 L -89.3985,496.7783 c -12.95994,3.75945 -24.77627,3.85932 -35.35534,0 L -321.22851,383.13614 c -1.06792,-0.38487 -7.28067,-6.71401 -11.08104,-12.80547 z"
           id="path4221"
           inkscape:connector-curvature="0"
           sodipodi:nodetypes="cccccccc" />
        <path
           style="fill:#00599d;fill-opacity:1;fill-rule:evenodd;stroke:#00599d;stroke-width:1px;stroke-linecap:butt;stroke-linejoin:miter;stroke-opacity:1"
           d="M -107.5,242.00506 116.42857,113.79078 c 3.65289,3.69569 4.49,9.26857 5.35715,14.82142 l 0.35714,227.32143 c 0.52627,4.80891 -2.50591,10.50743 -5.71429,16.25 z"
           id="path4223"
           inkscape:connector-curvature="0"
           sodipodi:nodetypes="cccccc" />
      </g>
      <g
         id="g4360">
        <path
           style="fill:#ffffff;fill-rule:evenodd;stroke:#ffffff;stroke-width:1px;stroke-linecap:butt;stroke-linejoin:miter;stroke-opacity:1"
           d="M -44.194171,204.0866 23.233513,165.44827 C -5.3286311,121.98824 -45.223361,93.134661 -104.04571,88.676676 -172.60813,87.94231 -244.61643,126.27542 -262.38712,221.2592 c -3.97657,64.65289 13.79961,86.52536 29.29442,112.88454 39.22639,47.78836 82.06525,64.69482 144.199279,59.34647 45.21209,-4.6728 87.2860239,-33.23994 111.621854,-75.25637 l -68.203238,-39.08213 c -34.17748,61.62258 -110.925025,41.41188 -129.786655,0.69633 -11.12244,-13.6815 -25.32548,-65.90661 20.70812,-99.50002 52.71515,-36.11098 103.474289,5.18698 110.359169,23.73858 z"
           id="path4238"
           inkscape:connector-curvature="0"
           sodipodi:nodetypes="ccccccccccc" />
        <g
           id="g4254"
           transform="translate(-477.80215,0)">
          <g
             id="g4244">
            <rect
               style="fill:#ffffff;fill-opacity:1;stroke:#ffffff;stroke-width:1;stroke-linejoin:round;stroke-miterlimit:4;stroke-dasharray:none;stroke-opacity:1"
               id="rect4240"
               width="17.14287"
               height="51.42857"
               x="485.35715"
               y="216.29077" />
            <rect
               style="fill:#ffffff;fill-opacity:1;stroke:#ffffff;stroke-width:1;stroke-linejoin:round;stroke-miterlimit:4;stroke-dasharray:none;stroke-opacity:1"
               id="rect4242"
               width="51.07143"
               height="17.142857"
               x="468.57144"
               y="233.43364" />
          </g>
          <g
             transform="translate(64,0)"
             id="g4248">
            <rect
               y="216.29077"
               x="485.35715"
               height="51.42857"
               width="17.14287"
               id="rect4250"
               style="fill:#ffffff;fill-opacity:1;stroke:#ffffff;stroke-width:1;stroke-linejoin:round;stroke-miterlimit:4;stroke-dasharray:none;stroke-opacity:1" />
            <rect
               y="233.43364"
               x="468.57144"
               height="17.142857"
               width="51.07143"
               id="rect4252"
               style="fill:#ffffff;fill-opacity:1;stroke:#ffffff;stroke-width:1;stroke-linejoin:round;stroke-miterlimit:4;stroke-dasharray:none;stroke-opacity:1" />
          </g>
        </g>
      </g>
    </g>
    <g
       id="g4347"
       transform="translate(76,62)">
      <g
         transform="translate(0,-584.87832)"
         id="g4230">
        <path
           sodipodi:nodetypes="ccccccccc"
           inkscape:connector-curvature="0"
           id="path4232"
           d="m -332.34019,370.50924 448.6863,-256.75732 c -1.64357,-6.23722 -5.65769,-9.31707 -12.12183,-15.15229 L -89.847557,-12.160007 c -14.020723,-5.632067 -25.721773,-3.973729 -36.421513,0.831581 L -314.21872,96.222183 c -15.79817,10.515947 -18.80265,18.355047 -22.16208,34.880897 l -1.42332,223.31025 c 1.01596,5.36531 2.11613,10.73061 5.46393,16.09591 z"
           style="fill:#a4c739;fill-opacity:1;fill-rule:evenodd;stroke:#a4c739;stroke-width:1px;stroke-linecap:butt;stroke-linejoin:miter;stroke-opacity:1" />
        <path
           sodipodi:nodetypes="cccccccc"
           inkscape:connector-curvature="0"
           id="path4234"
           d="m -107.46132,242.07193 223.62886,129.95254 c -0.99688,3.31503 -3.60857,6.30709 -6.97915,9.14738 L -89.3985,496.7783 c -12.95994,3.75945 -24.77627,3.85932 -35.35534,0 L -321.22851,383.13614 c -1.06792,-0.38487 -7.28067,-6.71401 -11.08104,-12.80547 z"
           style="fill:#6a8125;fill-opacity:1;fill-rule:evenodd;stroke:#6b8125;stroke-width:1px;stroke-linecap:butt;stroke-linejoin:miter;stroke-opacity:1" />
        <path
           sodipodi:nodetypes="cccccc"
           inkscape:connector-curvature="0"
           id="path4236"
           d="M -107.5,242.00506 116.42857,113.79078 c 3.65289,3.69569 4.49,9.26857 5.35715,14.82142 l 0.35714,227.32143 c 0.52627,4.80891 -2.50591,10.50743 -5.71429,16.25 z"
           style="fill:#8dab31;fill-opacity:1;fill-rule:evenodd;stroke:#8dab31;stroke-width:1px;stroke-linecap:butt;stroke-linejoin:miter;stroke-opacity:1" />
      </g>
      <g
         transform="translate(-473.39605,-6.0609154)"
         id="g4339">
        <path
           style="fill:#ffffff;fill-rule:evenodd;stroke:#ffffff;stroke-width:1px;stroke-linecap:butt;stroke-linejoin:miter;stroke-opacity:1"
           d="m 273.57143,-402.6378 178.65809,0 c 4.43843,-35.23198 -35.73498,-66.64928 -44.96412,-72.22951 l 14.83413,-25.92349 -3.69398,-1.59446 -15.38253,26.72444 c -23.58471,-7.68654 -48.52899,-11.78878 -79.45159,-0.12998 l -17.14286,-26.847 -2.30874,1.97698 13.98985,26.68111 c -36.75842,21.5988 -45.93,50.1003 -44.53825,71.34191 z"
           id="path4316"
           inkscape:connector-curvature="0"
           sodipodi:nodetypes="ccccccccccc" />
        <path
           style="fill:#ffffff;fill-rule:evenodd;stroke:#ffffff;stroke-width:1px;stroke-linecap:butt;stroke-linejoin:miter;stroke-opacity:1"
           d="m 273.57143,-394.10969 178.70141,0.0433 0.62763,126.89032 c 1.28625,17.82296 -16.42855,23.74474 -35.75761,20.96682 l -0.12255,47.39542 c -2.07608,9.06307 -10.81772,18.02749 -20.63506,18.36221 -6.9821,-1.01472 -13.5498,-3.96328 -18.52811,-14.32903 l -0.41842,-51.34935 -27.98712,0.12998 -0.12256,46.05348 c -4.57496,14.48721 -12.15452,17.55699 -20.04333,19.4516 -8.0222,-0.15776 -16.98018,-6.86709 -19.70413,-14.74746 l -0.29587,-50.08666 c -15.71408,-1.12852 -27.9657,1.67337 -36.1327,-13.44144 z"
           id="path4318"
           inkscape:connector-curvature="0"
           sodipodi:nodetypes="ccccccccccccccc" />
        <path
           style="fill:#ffffff;fill-rule:evenodd;stroke:#ffffff;stroke-width:1px;stroke-linecap:butt;stroke-linejoin:miter;stroke-opacity:1"
           d="m 462.18618,-383.69128 c 6.65223,-14.20782 13.30445,-11.64878 19.95668,-13.23223 11.20273,1.91741 17.88202,5.43132 17.64793,11.38525 l 0.0433,96.30601 c -5.72464,7.98285 -12.38528,12.5337 -20.12998,13.10968 -13.11989,-1.90702 -13.09179,-7.32017 -16.847,-11.72443 z"
           id="path4322"
           inkscape:connector-curvature="0"
           sodipodi:nodetypes="ccccccc" />
        <path
           sodipodi:nodetypes="ccccccc"
           inkscape:connector-curvature="0"
           id="path4333"
           d="m 225.43618,-382.61985 c 6.65223,-14.20782 13.30445,-11.64878 19.95668,-13.23223 11.20273,1.91741 17.88202,5.43132 17.64793,11.38525 l 0.0433,96.30601 c -5.72464,7.98285 -12.38528,12.5337 -20.12998,13.10968 -13.11989,-1.90702 -13.09179,-7.32017 -16.847,-11.72443 z"
           style="fill:#ffffff;fill-rule:evenodd;stroke:#ffffff;stroke-width:1px;stroke-linecap:butt;stroke-linejoin:miter;stroke-opacity:1" />
        <ellipse
           style="fill:#a4c739;fill-opacity:1;stroke:#ffffff;stroke-width:1.07585752;stroke-linejoin:round;stroke-miterlimit:4;stroke-dasharray:none;stroke-opacity:1"
           id="path4335"
           cx="321.22852"
           cy="-441.59027"
           rx="7.1594081"
           ry="6.9700046" />
        <ellipse
           ry="6.9700046"
           rx="7.1594081"
           cy="-441.59027"
           cx="405.22852"
           id="ellipse4337"
           style="fill:#a4c739;fill-opacity:1;stroke:#ffffff;stroke-width:1.07585752;stroke-linejoin:round;stroke-miterlimit:4;stroke-dasharray:none;stroke-opacity:1" />
      </g>
    </g>
    <g
       id="g5347">
      <g
         id="g4308"
         transform="translate(-486.29417,-292.87832)">
        <path
           style="fill:#5d5086;fill-opacity:1;fill-rule:evenodd;stroke:#5d5086;stroke-width:1px;stroke-linecap:butt;stroke-linejoin:miter;stroke-opacity:1"
           d="m -332.34019,370.50924 448.6863,-256.75732 c -1.64357,-6.23722 -5.65769,-9.31707 -12.12183,-15.15229 L -89.847557,-12.160007 c -14.020723,-5.632067 -25.721773,-3.973729 -36.421513,0.831581 L -314.21872,96.222183 c -15.79817,10.515947 -18.80265,18.355047 -22.16208,34.880897 l -1.42332,223.31025 c 1.01596,5.36531 2.11613,10.73061 5.46393,16.09591 z"
           id="path4310"
           inkscape:connector-curvature="0"
           sodipodi:nodetypes="ccccccccc" />
        <path
           style="fill:#453a62;fill-opacity:1;fill-rule:evenodd;stroke:#453a62;stroke-width:1px;stroke-linecap:butt;stroke-linejoin:miter;stroke-opacity:1"
           d="m -107.46132,242.07193 223.62886,129.95254 c -0.99688,3.31503 -3.60857,6.30709 -6.97915,9.14738 L -89.3985,496.7783 c -12.95994,3.75945 -24.77627,3.85932 -35.35534,0 L -321.22851,383.13614 c -1.06792,-0.38487 -7.28067,-6.71401 -11.08104,-12.80547 z"
           id="path4312"
           inkscape:connector-curvature="0"
           sodipodi:nodetypes="cccccccc" />
        <path
           style="fill:#8f4d8b;fill-opacity:1;fill-rule:evenodd;stroke:#8f4d8b;stroke-width:1px;stroke-linecap:butt;stroke-linejoin:miter;stroke-opacity:1"
           d="M -107.5,242.00506 116.42857,113.79078 c 3.65289,3.69569 4.49,9.26857 5.35715,14.82142 l 0.35714,227.32143 c 0.52627,4.80891 -2.50591,10.50743 -5.71429,16.25 z"
           id="path4314"
           inkscape:connector-curvature="0"
           sodipodi:nodetypes="cccccc" />
      </g>
      <g
         transform="translate(32,10)"
         id="g4659">
        <g
           style="fill:#ffffff;stroke:#ffffff"
           id="g4586"
           transform="matrix(0.71408986,0,0,0.71408986,-2002.1768,-255.23951)">
          <path
             sodipodi:nodetypes="ccccc"
             inkscape:connector-curvature="0"
             id="path4582"
             d="m 1700.9705,104.92491 81.6102,-0.58579 109.8944,168.8772 -77.5429,5.13462 z"
             style="fill:#ffffff;fill-rule:evenodd;stroke:#ffffff;stroke-width:1px;stroke-linecap:butt;stroke-linejoin:miter;stroke-opacity:1" />
          <use
             style="fill:#ffffff;stroke:#ffffff"
             height="100%"
             width="100%"
             transform="matrix(1.0001148,0,0,-0.97065664,-0.20635543,539.0161)"
             id="use4584"
             xlink:href="#path4582"
             y="0"
             x="0" />
        </g>
        <path
           sodipodi:nodetypes="ccccc"
           inkscape:connector-curvature="0"
           id="path4592"
           d="m -705.05073,-180.3137 58.27702,-0.4183 77.21146,120.593497 -56.00414,-0.122517 z"
           style="fill:#ffffff;fill-rule:evenodd;stroke:#ffffff;stroke-width:0.71408987px;stroke-linecap:butt;stroke-linejoin:miter;stroke-opacity:1" />
        <g
           style="fill:#ffffff;stroke:#ffffff"
           id="g4622"
           transform="matrix(0.71408986,0,0,0.71408986,-1919.6965,-255.23951)">
          <use
             style="fill:#ffffff;stroke:#ffffff"
             x="0"
             y="0"
             xlink:href="#path4582"
             id="use4594"
             transform="matrix(0.98716867,0,0,-0.95994578,21.80332,537.90455)"
             width="100%"
             height="100%" />
        </g>
        <use
           x="0"
           y="0"
           xlink:href="#path4582"
           id="use4596"
           transform="matrix(-0.69655868,0,0,-0.69320638,692.68141,129.6797)"
           width="100%"
           height="100%"
           style="fill:#ffffff;stroke:#ffffff" />
        <path
           style="fill:#ffffff;fill-rule:evenodd;stroke:#ffffff;stroke-width:0.71408987px;stroke-linecap:butt;stroke-linejoin:miter;stroke-opacity:1"
           d="m -582.20618,-110.7347 26.42133,39.274941 101.40078,0.714086 -0.35706,-39.631987 z"
           id="path4598"
           inkscape:connector-curvature="0"
           sodipodi:nodetypes="ccccc" />
        <path
           style="fill:#ffffff;fill-rule:evenodd;stroke:#ffffff;stroke-width:0.71408987px;stroke-linecap:butt;stroke-linejoin:miter;stroke-opacity:1"
           d="m -543.64532,-50.751159 26.06428,39.274942 62.83991,-0.357042 0,-39.274943 z"
           id="path4600"
           inkscape:connector-curvature="0"
           sodipodi:nodetypes="ccccc" />
      </g>
    </g>
    <g
       id="g6722"
       transform="translate(-1516.0369,328.09754)">
      <g
         transform="translate(965.70583,-9.1928952)"
         id="g4385">
        <path
           sodipodi:nodetypes="ccccccccc"
           inkscape:connector-curvature="0"
           id="path4387"
           d="m -332.34019,370.50924 448.6863,-256.75732 c -1.64357,-6.23722 -5.65769,-9.31707 -12.12183,-15.15229 L -89.847557,-12.160007 c -14.020723,-5.632067 -25.721773,-3.973729 -36.421513,0.831581 L -314.21872,96.222183 c -15.79817,10.515947 -18.80265,18.355047 -22.16208,34.880897 l -1.42332,223.31025 c 1.01596,5.36531 2.11613,10.73061 5.46393,16.09591 z"
           style="fill:#669ad3;fill-opacity:1;fill-rule:evenodd;stroke:#669ad3;stroke-width:1px;stroke-linecap:butt;stroke-linejoin:miter;stroke-opacity:1" />
        <path
           sodipodi:nodetypes="cccccccc"
           inkscape:connector-curvature="0"
           id="path4389"
           d="m -107.46132,242.07193 223.62886,129.95254 c -0.99688,3.31503 -3.60857,6.30709 -6.97915,9.14738 L -89.3985,496.7783 c -12.95994,3.75945 -24.77627,3.85932 -35.35534,0 L -321.22851,383.13614 c -1.06792,-0.38487 -7.28067,-6.71401 -11.08104,-12.80547 z"
           style="fill:#f1cc43;fill-opacity:1;fill-rule:evenodd;stroke:#f1cc43;stroke-width:1px;stroke-linecap:butt;stroke-linejoin:miter;stroke-opacity:1" />
        <path
           sodipodi:nodetypes="cccccc"
           inkscape:connector-curvature="0"
           id="path4391"
           d="M -107.5,242.00506 116.42857,113.79078 c 3.65289,3.69569 4.49,9.26857 5.35715,14.82142 l 0.35714,227.32143 c 0.52627,4.80891 -2.50591,10.50743 -5.71429,16.25 z"
           style="fill:#f6da5f;fill-opacity:1;fill-rule:evenodd;stroke:#f6da5f;stroke-width:1px;stroke-linecap:butt;stroke-linejoin:miter;stroke-opacity:1" />
      </g>
      <g
         transform="translate(241,423)"
         id="g6708">
        <path
           style="fill:#ffffff;fill-rule:evenodd;stroke:#ffffff;stroke-width:1px;stroke-linecap:butt;stroke-linejoin:miter;stroke-opacity:1"
           d="m 532,-115.13779 0,-38 c 5.06066,-22.6594 20.14042,-36.25391 45,-41 l 84,0.5 c 18.68606,-3.24901 30.89203,-13.78813 34.5,-34 l 0,-76.5 c -4.02029,-22.17259 -21.40943,-38.26844 -77,-37 -56.36079,0.46488 -72.58408,13.11436 -76.5,29.5 l 0,39.5 75.5,-0.5 0,8.5 -108.5,0.5 c -35.49211,4.97228 -48.3174,33.83662 -49,75.5 1.36099,59.77383 26.58017,72.51719 39,73.5 z"
           id="path6700"
           inkscape:connector-curvature="0"
           sodipodi:nodetypes="ccccccccccccccc" />
        <path
           style="fill:#ffffff;fill-rule:evenodd;stroke:#ffffff;stroke-width:1px;stroke-linecap:butt;stroke-linejoin:miter;stroke-opacity:1"
           d="m 704.5,-263.63779 35.5,0 c 18.97639,4.57088 36.88081,20.79927 39,78.5 -3.38057,57.17175 -27.0093,69.74188 -37.5,70.5 l -122,-0.5 0,9 77,0 0,34.499999 c -9.44139,31.823266 -51.48905,34.909501 -75.5,36.5 -7.11875,1.225407 -65.50544,1.043941 -79.5,-37 l 1.5,-82.999999 c 8.85846,-23.0608 21.25245,-27.45722 34,-29.5 l 87,-0.5 c 20.77342,-3.11721 34.86773,-15.58518 41.5,-38.5 z"
           id="path6702"
           inkscape:connector-curvature="0"
           sodipodi:nodetypes="ccccccccccccccc" />
        <ellipse
           style="fill:#669ad3;fill-opacity:1;stroke:#ffffff;stroke-width:1.09658515;stroke-linejoin:round;stroke-miterlimit:4;stroke-dasharray:none;stroke-opacity:1"
           id="path6704"
           cx="576.29205"
           cy="-304.15384"
           rx="15.508057"
           ry="14.732654" />
        <ellipse
           ry="14.732654"
           rx="15.508057"
           cy="-71.403839"
           cx="662.79205"
           id="ellipse6706"
           style="fill:#f1cc43;fill-opacity:1;stroke:#ffffff;stroke-width:1.09658515;stroke-linejoin:round;stroke-miterlimit:4;stroke-dasharray:none;stroke-opacity:1" />
      </g>
    </g>
    <g
       id="g8094"
       transform="translate(-1309.5618,-229.1026)">
      <g
         id="g6714"
         transform="translate(965.70583,-651.24585)">
        <path
           style="fill:#f8582a;fill-opacity:1;fill-rule:evenodd;stroke:#f8582a;stroke-width:1px;stroke-linecap:butt;stroke-linejoin:miter;stroke-opacity:1"
           d="m -332.34019,370.50924 448.6863,-256.75732 c -1.64357,-6.23722 -5.65769,-9.31707 -12.12183,-15.15229 L -89.847557,-12.160007 c -14.020723,-5.632067 -25.721773,-3.973729 -36.421513,0.831581 L -314.21872,96.222183 c -15.79817,10.515947 -18.80265,18.355047 -22.16208,34.880897 l -1.42332,223.31025 c 1.01596,5.36531 2.11613,10.73061 5.46393,16.09591 z"
           id="path6716"
           inkscape:connector-curvature="0"
           sodipodi:nodetypes="ccccccccc" />
        <path
           style="fill:#2f6db8;fill-opacity:1;fill-rule:evenodd;stroke:#2f6db8;stroke-width:1px;stroke-linecap:butt;stroke-linejoin:miter;stroke-opacity:1"
           d="m -107.46132,242.07193 223.62886,129.95254 c -0.99688,3.31503 -3.60857,6.30709 -6.97915,9.14738 L -89.3985,496.7783 c -12.95994,3.75945 -24.77627,3.85932 -35.35534,0 L -321.22851,383.13614 c -1.06792,-0.38487 -7.28067,-6.71401 -11.08104,-12.80547 z"
           id="path6718"
           inkscape:connector-curvature="0"
           sodipodi:nodetypes="cccccccc" />
        <path
           style="fill:#669ad3;fill-opacity:1;fill-rule:evenodd;stroke:#669ad3;stroke-width:1px;stroke-linecap:butt;stroke-linejoin:miter;stroke-opacity:1"
           d="M -107.5,242.00506 116.42857,113.79078 c 3.65289,3.69569 4.49,9.26857 5.35715,14.82142 l 0.35714,227.32143 c 0.52627,4.80891 -2.50591,10.50743 -5.71429,16.25 z"
           id="path6720"
           inkscape:connector-curvature="0"
           sodipodi:nodetypes="cccccc" />
      </g>
      <g
         transform="translate(-571,-227)"
         style="fill:#ffffff;stroke:#ffffff"
         id="g8084">
        <path
           style="fill:#ffffff;fill-rule:evenodd;stroke:#ffffff;stroke-width:1px;stroke-linecap:butt;stroke-linejoin:miter;stroke-opacity:1"
           d="m 1460.4142,-366.99134 c -9.4662,26.55339 -38.7913,61.61738 -75.9289,100.02943 -7.6864,10.91416 -12.8533,21.51457 -4.9255,35.33364 7.1108,13.30994 19.8636,25.91277 32.5511,39.22271 0,0 10.1316,3.97524 4.7733,-4.41219 -26.7413,-41.85827 -31.5315,-62.07041 7.1158,-88.82004 19.1951,-20.00933 42.6749,-37.70673 36.4142,-81.35355 z"
           id="path8068"
           inkscape:connector-curvature="0"
           sodipodi:nodetypes="ccccscc" />
        <path
           style="fill:#ffffff;fill-rule:evenodd;stroke:#ffffff;stroke-width:1px;stroke-linecap:butt;stroke-linejoin:miter;stroke-opacity:1"
           d="m 1476.0854,-298.21174 c 5.3647,-1.6519 12.2994,-1.36939 3.8891,5.3033 -37.0094,20.05489 -50.9426,37.40565 -26.163,75.66042 6.2929,33.55786 -13.0814,34.29468 -13.0814,34.29468 -7.0176,-0.44994 -5.0725,-3.88746 -3.8891,-7.07107 -0.3374,-5.75856 2.9609,-7.88133 -4.2427,-20.50609 -6.0867,-12.13867 -13.3752,-24.27733 -11.3137,-36.416 3.657,-36.08244 37.9871,-45.22589 54.8008,-51.26524 z"
           id="path8070"
           inkscape:connector-curvature="0"
           sodipodi:nodetypes="cccccccc" />
        <path
           style="fill:#ffffff;fill-rule:evenodd;stroke:#ffffff;stroke-width:1px;stroke-linecap:butt;stroke-linejoin:miter;stroke-opacity:1"
           d="m 1364.3625,-183.30689 c 14.3056,-17.04305 -60.2918,8.03827 -32.1733,19.09188 33.9531,8.58304 80.0526,9.46441 140.7142,-2.47487 5.2166,-1.53207 4.0814,-3.06413 -1.0606,-4.5962 -24.1155,-1.20987 -65.3996,-0.18036 -111.0158,1.41422 -8.4136,-1.36716 -5.8494,-3.7323 -4.2426,-6.01041 z"
           id="path8072"
           inkscape:connector-curvature="0"
           sodipodi:nodetypes="ccccccc" />
        <path
           style="fill:#ffffff;fill-rule:evenodd;stroke:#ffffff;stroke-width:1px;stroke-linecap:butt;stroke-linejoin:miter;stroke-opacity:1"
           d="m 1511.7943,-189.3173 c -6.3229,0.81593 -10.2273,1.91638 -0.7071,4.5962 7.6163,1.45774 22.5144,9.83553 3.182,32.88046 l -11.6673,13.43503 c -1.8543,5.25699 -11.7631,16.03971 7.4246,6.36396 14.2565,-12.61125 37.3769,-22.26782 27.9307,-42.77996 -8.721,-14.0245 -17.4419,-14.27813 -26.1629,-14.49569 z"
           id="path8074"
           inkscape:connector-curvature="0"
           sodipodi:nodetypes="ccccccc" />
        <path
           style="fill:#ffffff;fill-rule:evenodd;stroke:#ffffff;stroke-width:1px;stroke-linecap:butt;stroke-linejoin:miter;stroke-opacity:1"
           d="m 1364.009,-143.70891 c -20.4145,-5.71563 -12.1594,2.69261 -7.7782,9.19239 14.9409,16.1358 59.1463,12.00259 103.5912,6.0104 29.6384,-10.92002 -0.7072,-10.96015 -0.7072,-10.96015 -38.1134,-0.38011 -84.4945,0.57329 -95.1058,-4.24264 z"
           id="path8076"
           inkscape:connector-curvature="0"
           sodipodi:nodetypes="ccccc" />
        <path
           style="fill:#ffffff;fill-rule:evenodd;stroke:#ffffff;stroke-width:1px;stroke-linecap:butt;stroke-linejoin:miter;stroke-opacity:1"
           d="m 1378.1511,-108.35357 c -17.0669,1.4196 -29.81,3.92012 -6.0104,15.556347 43.2419,10.066222 63.2721,5.526492 79.196,2.828427 35.0854,-7.982147 7.2604,-14.526184 -0.3536,-15.909904 -24.0185,-1.34256 -47.9076,-2.94404 -72.832,-2.47487 z"
           id="path8078"
           inkscape:connector-curvature="0"
           sodipodi:nodetypes="ccccc" />
        <path
           style="fill:#ffffff;fill-rule:evenodd;stroke:#ffffff;stroke-width:1px;stroke-linecap:butt;stroke-linejoin:miter;stroke-opacity:1"
           d="m 1327.9465,-80.069301 c 11.2324,-8.667912 24.9146,-18.398905 -12.3743,-6.010408 -27.0941,12.136332 -22.1306,17.861139 -7.0711,21.566757 91.0958,22.876344 189.9161,2.577574 211.4249,-9.899495 l 3.182,-3.181981 c -0.3537,-11.617645 -0.2629,-6.215876 -14.8493,0.707107 -79.0541,18.103421 -156.1608,10.57042 -177.8373,4.949747 -5.7421,-0.525173 -5.1684,-3.857396 -2.4749,-8.131727 z"
           id="path8080"
           inkscape:connector-curvature="0"
           sodipodi:nodetypes="cccccccc" />
        <path
           style="fill:#ffffff;fill-rule:evenodd;stroke:#ffffff;stroke-width:1px;stroke-linecap:butt;stroke-linejoin:miter;stroke-opacity:1"
           d="m 1380.9795,-47.54239 c -28.9183,3.781624 -21.7794,6.227797 0,8.131728 50.3041,-1.903042 109.0491,-0.503149 139.3001,-10.253048 13.5227,-6.724262 31.3751,-16.754196 -5.3033,-9.899495 -5.847,3.535534 -29.0849,7.071068 -62.2254,10.606602 z"
           id="path8082"
           inkscape:connector-curvature="0"
           sodipodi:nodetypes="cccccc" />
      </g>
    </g>
    <g
       id="g8869"
       transform="translate(-2042.1244,-169.70563)">
      <g
         transform="translate(1101.4703,-577.70675)"
         id="g8733">
        <path
           sodipodi:nodetypes="ccccccccc"
           inkscape:connector-curvature="0"
           id="path8735"
           d="m -332.34019,370.50924 448.6863,-256.75732 c -1.64357,-6.23722 -5.65769,-9.31707 -12.12183,-15.15229 L -89.847557,-12.160007 c -14.020723,-5.632067 -25.721773,-3.973729 -36.421513,0.831581 L -314.21872,96.222183 c -15.79817,10.515947 -18.80265,18.355047 -22.16208,34.880897 l -1.42332,223.31025 c 1.01596,5.36531 2.11613,10.73061 5.46393,16.09591 z"
           style="fill:#fa8d6e;fill-opacity:1;fill-rule:evenodd;stroke:#fa8e6e;stroke-width:1px;stroke-linecap:butt;stroke-linejoin:miter;stroke-opacity:1" />
        <path
           sodipodi:nodetypes="cccccccc"
           inkscape:connector-curvature="0"
           id="path8737"
           d="m -107.46132,242.07193 223.62886,129.95254 c -0.99688,3.31503 -3.60857,6.30709 -6.97915,9.14738 L -89.3985,496.7783 c -12.95994,3.75945 -24.77627,3.85932 -35.35534,0 L -321.22851,383.13614 c -1.06792,-0.38487 -7.28067,-6.71401 -11.08104,-12.80547 z"
           style="fill:#ef4222;fill-opacity:1;fill-rule:evenodd;stroke:#ef4221;stroke-width:1px;stroke-linecap:butt;stroke-linejoin:miter;stroke-opacity:1" />
        <path
           sodipodi:nodetypes="cccccc"
           inkscape:connector-curvature="0"
           id="path8739"
           d="M -107.5,242.00506 116.42857,113.79078 c 3.65289,3.69569 4.49,9.26857 5.35715,14.82142 l 0.35714,227.32143 c 0.52627,4.80891 -2.50591,10.50743 -5.71429,16.25 z"
           style="fill:#f8582a;fill-opacity:1;fill-rule:evenodd;stroke:#f8582a;stroke-width:1px;stroke-linecap:butt;stroke-linejoin:miter;stroke-opacity:1" />
      </g>
      <path
         sodipodi:nodetypes="cccccccccccccccccccccccc"
         inkscape:connector-curvature="0"
         id="path8861"
         d="m 933.16565,-455.9893 -98.28784,103.94469 c -3.93343,8.88964 -12.87924,15.04526 2.82843,34.64823 l 135.05739,142.12847 c 12.37695,12.80694 25.34157,16.79838 39.59797,1.41421 l 130.1077,-137.88582 c 18.5793,-16.18929 16.9604,-30.00232 3.5355,-42.42641 l -133.6432,-142.12846 c -11.3037,-10.57039 -22.78867,-20.10716 -39.59797,0.70711 l -25.45584,24.04163 38.18376,41.01219 c 17.14805,-6.80973 37.47525,10.20163 30.40555,32.52691 l 38.1838,39.59798 c 15.3408,-4.78566 21.9756,2.3339 28.2843,9.8995 13.769,31.09778 -13.906,49.87944 -36.0625,36.06244 -7.3095,-8.55686 -13.3942,-13.80752 -7.7781,-31.11269 l -34.6483,-36.76956 0,94.0452 c 9.9962,6.19776 16.1401,14.32166 14.8493,26.16295 -4.3713,27.21402 -38.97296,36.50935 -50.91172,1.41422 1.45787,-9.01391 -1.87234,-17.49582 15.55635,-28.28427 l 0,-95.45942 c -9.52802,-3.97435 -19.24764,-15.76774 -14.14214,-35.35534 z"
         style="fill:#ffffff;fill-rule:evenodd;stroke:#ffffff;stroke-width:1px;stroke-linecap:butt;stroke-linejoin:miter;stroke-opacity:1" />
    </g>
    <g
       id="g9599"
       transform="translate(-2675.692,50.911688)">
      <g
         style="fill:#113228;fill-opacity:1;stroke:#113228;stroke-opacity:1"
         id="g8853"
         transform="translate(1590.7882,-173.24168)">
        <path
           style="fill:#339577;fill-opacity:1;fill-rule:evenodd;stroke:#339577;stroke-width:1px;stroke-linecap:butt;stroke-linejoin:miter;stroke-opacity:1"
           d="m -332.34019,370.50924 448.6863,-256.75732 c -1.64357,-6.23722 -5.65769,-9.31707 -12.12183,-15.15229 L -89.847557,-12.160007 c -14.020723,-5.632067 -25.721773,-3.973729 -36.421513,0.831581 L -314.21872,96.222183 c -15.79817,10.515947 -18.80265,18.355047 -22.16208,34.880897 l -1.42332,223.31025 c 1.01596,5.36531 2.11613,10.73061 5.46393,16.09591 z"
           id="path8855"
           inkscape:connector-curvature="0"
           sodipodi:nodetypes="ccccccccc" />
        <path
           style="fill:#113228;fill-opacity:1;fill-rule:evenodd;stroke:#113228;stroke-width:1px;stroke-linecap:butt;stroke-linejoin:miter;stroke-opacity:1"
           d="m -107.46132,242.07193 223.62886,129.95254 c -0.99688,3.31503 -3.60857,6.30709 -6.97915,9.14738 L -89.3985,496.7783 c -12.95994,3.75945 -24.77627,3.85932 -35.35534,0 L -321.22851,383.13614 c -1.06792,-0.38487 -7.28067,-6.71401 -11.08104,-12.80547 z"
           id="path8857"
           inkscape:connector-curvature="0"
           sodipodi:nodetypes="cccccccc" />
        <path
           style="fill:#236855;fill-opacity:1;fill-rule:evenodd;stroke:#246854;stroke-width:1px;stroke-linecap:butt;stroke-linejoin:miter;stroke-opacity:1"
           d="M -107.5,242.00506 116.42857,113.79078 c 3.65289,3.69569 4.49,9.26857 5.35715,14.82142 l 0.35714,227.32143 c 0.52627,4.80891 -2.50591,10.50743 -5.71429,16.25 z"
           id="path8859"
           inkscape:connector-curvature="0"
           sodipodi:nodetypes="cccccc" />
      </g>
      <g
         transform="translate(1157,-176)"
         style="fill:#ffffff"
         id="g9594">
        <rect
           style="fill:#ffffff;fill-opacity:1;stroke:#ffffff;stroke-width:2.48447442;stroke-linejoin:round;stroke-miterlimit:4;stroke-dasharray:none;stroke-opacity:1"
           id="rect9573"
           width="55.33884"
           height="54.460453"
           x="374.34363"
           y="93.801094" />
        <path
           inkscape:connector-curvature="0"
           style="fill:#ffffff;fill-rule:evenodd;stroke:#ffffff;stroke-width:2.48447442px;stroke-linecap:butt;stroke-linejoin:miter;stroke-opacity:1"
           d="m 290.45703,95.119141 -0.43945,77.738279 c -43.36303,-6.5687 -83.24469,-2.25697 -108.04297,49.18946 -8.85169,42.85437 -7.79726,88.23924 37.77148,107.16406 28.56151,9.67926 64.98315,13.92099 123.85352,2.63476 L 342.7207,95.558594 290.45703,95.119141 Z M 268.12695,211.9043 c 3.37714,-0.25285 6.90736,-0.23564 10.56446,0.006 3.65709,0.24149 7.4406,0.70862 11.32617,1.35351 l 0,82.56836 c -4.57498,0.732 -8.89446,1.16096 -12.95703,1.28906 -4.06258,0.1281 -7.8678,-0.0457 -11.41797,-0.52148 -1.77509,-0.2379 -3.48583,-0.55058 -5.13281,-0.93945 -1.64699,-0.38888 -3.23111,-0.85274 -4.75,-1.39258 -1.51889,-0.53985 -2.9725,-1.15488 -4.36329,-1.8457 -1.39079,-0.69083 -2.71777,-1.45704 -3.98046,-2.29883 -1.2627,-0.8418 -2.46111,-1.75919 -3.59571,-2.75196 -1.13459,-0.99276 -2.20639,-2.06133 -3.21289,-3.20507 -1.00649,-1.14375 -1.94777,-2.36349 -2.82617,-3.65821 -0.8784,-1.29471 -1.69306,-2.66563 -2.44336,-4.11133 -0.7503,-1.44569 -1.43639,-2.96583 -2.05859,-4.5625 -0.6222,-1.59666 -1.18168,-3.26993 -1.67578,-5.01757 -0.9882,-3.49528 -1.71951,-7.29146 -2.19532,-11.39063 0.30795,-2.5642 0.69199,-4.99248 1.15039,-7.29101 0.45841,-2.29854 0.99133,-4.46748 1.59375,-6.51172 0.60243,-2.04424 1.27562,-3.96432 2.01563,-5.76563 0.74001,-1.80131 1.54682,-3.48299 2.41797,-5.05273 0.87115,-1.56975 1.80687,-3.02741 2.80273,-4.37696 0.99586,-1.34954 2.05189,-2.5917 3.16602,-3.73242 1.11413,-1.14071 2.28576,-2.17979 3.51172,-3.12304 1.22596,-0.94326 2.50653,-1.79168 3.83789,-2.54883 1.33135,-0.75716 2.71421,-1.42344 4.14453,-2.00586 1.43031,-0.58242 2.90685,-1.08095 4.42969,-1.5 3.04567,-0.83811 6.2713,-1.36044 9.64843,-1.61328 z"
           id="path9575" />
        <path
           style="fill:#ffffff;fill-rule:evenodd;stroke:#ffffff;stroke-width:2.48447442px;stroke-linecap:butt;stroke-linejoin:miter;stroke-opacity:1"
           d="m 374.34335,174.61339 0.87851,139.66469 c -2.12621,38.28001 -21.04375,59.76871 -50.06862,71.14994 l 49.19011,23.71665 c 26.09891,-15.20413 50.7439,-32.208 52.70365,-77.2987 l 0.87851,-157.23258 z"
           id="path9579"
           inkscape:connector-curvature="0"
           sodipodi:nodetypes="ccccccc" />
      </g>
    </g>
    <g
       id="g10285"
       transform="translate(-454.87524,204.2297)">
      <g
         transform="translate(1076.0145,-235.46706)"
         id="g9565"
         style="fill:#de8787;fill-opacity:1;stroke:#113228;stroke-opacity:1">
        <path
           sodipodi:nodetypes="ccccccccc"
           inkscape:connector-curvature="0"
           id="path9567"
           d="m -332.34019,370.50924 448.6863,-256.75732 c -1.64357,-6.23722 -5.65769,-9.31707 -12.12183,-15.15229 L -89.847557,-12.160007 c -14.020723,-5.632067 -25.721773,-3.973729 -36.421513,0.831581 L -314.21872,96.222183 c -15.79817,10.515947 -18.80265,18.355047 -22.16208,34.880897 l -1.42332,223.31025 c 1.01596,5.36531 2.11613,10.73061 5.46393,16.09591 z"
           style="fill:#999999;fill-opacity:1;fill-rule:evenodd;stroke:#999999;stroke-width:1px;stroke-linecap:butt;stroke-linejoin:miter;stroke-opacity:1" />
        <path
           sodipodi:nodetypes="cccccccc"
           inkscape:connector-curvature="0"
           id="path9569"
           d="m -107.46132,242.07193 223.62886,129.95254 c -0.99688,3.31503 -3.60857,6.30709 -6.97915,9.14738 L -89.3985,496.7783 c -12.95994,3.75945 -24.77627,3.85932 -35.35534,0 L -321.22851,383.13614 c -1.06792,-0.38487 -7.28067,-6.71401 -11.08104,-12.80547 z"
           style="fill:#666666;fill-opacity:1;fill-rule:evenodd;stroke:#666666;stroke-width:1px;stroke-linecap:butt;stroke-linejoin:miter;stroke-opacity:1" />
        <path
           sodipodi:nodetypes="cccccc"
           inkscape:connector-curvature="0"
           id="path9571"
           d="M -107.5,242.00506 116.42857,113.79078 c 3.65289,3.69569 4.49,9.26857 5.35715,14.82142 l 0.35714,227.32143 c 0.52627,4.80891 -2.50591,10.50743 -5.71429,16.25 z"
           style="fill:#ff5555;fill-opacity:1;fill-rule:evenodd;stroke:#ff5555;stroke-width:1px;stroke-linecap:butt;stroke-linejoin:miter;stroke-opacity:1" />
      </g>
      <g
         style="fill:#ffffff;stroke:#ffffff"
         id="g10280">
        <path
           style="fill:#ffffff;fill-rule:evenodd;stroke:#ffffff;stroke-width:1px;stroke-linecap:butt;stroke-linejoin:miter;stroke-opacity:1"
           d="m 768.03033,-48.284238 51.46967,-0.353553 0.20711,4.5 c -7.1988,0.892441 -18.31726,-1.481495 -20.5,3.59099 l -0.17678,73.262562 c 0,0 0.9127,3.13117 4.46967,3.146447 l 25,0 c 7.42127,-0.28241 23.29519,-7.377173 23.5,-28.9999994 l 4,0 -4,32.9999994 -84,0 0,-3.5 c 4.81603,0.145121 15.64055,0.760366 16.5,-3.5 l -0.20711,-73.237436 C 782.29057,-45.503385 775.39111,-44.375765 768,-44.637791 Z"
           id="path10269"
           inkscape:connector-curvature="0"
           sodipodi:nodetypes="cccccccccccccccc" />
        <path
           style="fill:#ffffff;fill-rule:evenodd;stroke:#ffffff;stroke-width:1px;stroke-linecap:butt;stroke-linejoin:miter;stroke-opacity:1"
           d="m 882,-18.637791 3,-28.75 98,-0.75 3,29 74.5,0.5 5.0607,28.883883 -4.3839,0.116117 c -1.0314,-16.267198 -9.4248,-23.809125 -23.1768,-25 l -32.5,0.5 c -4.3842,-0.154634 -3.9546,2.122348 -4.5,6.9999996 l 0.5,28.5000004 18,0.5 c 15.3382,-1.631774 13.3125,-9.02446 13.5,-15.3838839 l 4,-0.1161165 0.5,34.9999994 -4.5,0.06066 c 0.2997,-11.840384 -3.9402,-14.694848 -13.5607,-15.560659 l -17.4393,-0.5 -1,36.499999 c 0,0 0.3795,3.769988 5.5,3 l 36,0 c 12.7256,-1.633867 20.2736,-9.700535 22,-25 l -7,0.125 0.125,-3.75 c 7.3553,0.192978 14.5112,-0.610504 20.875,-5.375 L 1107,-3.1377914 1077,-40.137791 c -2.6289,-2.437984 -3.7961,-5.407467 -17,-4 l 0,-4.5 44.5,1 -0.125,3.375 c -5.5953,-0.359507 -8.8566,0.948261 -10.375,3.625 l 21.875,27 18.25,-21.875 c 3.6069,-3.069799 1.0298,-8.130655 -8.625,-9.125 l 0.125,-4 38.375,0.125 0,4.375 c -6.0264,0.553171 -14.5284,-1.620734 -23.375,8.25 l -21.75,26 33.5,41.374999 c 4.2868,4.531874 10.5475,4.950101 18.125,4.875 l 0,4 -44.5,0.5 -0.125,-4.125 c 4.2083,-1.069478 9.6766,-1.158964 11.125,-4.375 l -26.625,-32.24999939 -24.5,29.37500039 c 1.3876,3.595781 2.6908,7.050164 10.125,6.374999 l 0,4.5 -27,-0.5 -6,29.5 -93.5,0 0,-3.875 12.5,-0.375 c 4.40826,-0.538116 4.13216,-2.414621 4,-4.25 l 0,-71.999999 c 0,0 1.0296,-3.092485 -6.5,-3.5 l -9.5,0 0,-4.25 12,-0.25 c 1.22983,-5.715599 -1.74784,-24.703462 -20.5,-24.5 l -16.875,0.125 c 0,0 -2.88132,0.455365 -3.125,3.875 l 0,70.999999 4,4 19.5,0 -1,4.5 -60.5,1 0,-5 19.5,-0.5 3,-4 1.5,-70.499999 c 0.0178,-3.901964 -2.20315,-4.088993 -5.5,-4.625 l -18,0.125 c -18.1818,3.046675 -16.00856,15.049566 -18.5,25 z"
           id="path10271"
           inkscape:connector-curvature="0"
           sodipodi:nodetypes="ccccccccccccccccccccccccccccccccccccccccccccccccccccccccccccccccccccccccccccc" />
        <path
           style="fill:#ffffff;fill-rule:evenodd;stroke:#ffffff;stroke-width:1px;stroke-linecap:butt;stroke-linejoin:miter;stroke-opacity:1"
           d="m 851.86333,-49.890587 c -0.92405,-0.201818 -2.20596,-0.07681 -3.63477,1.230469 l -28.375,56.8749995 c -5.089,3.5113265 -8.37799,3.4226475 -11.5,2.9999995 l 0.5,3 24.875,0.25 0,-3 -5.5,-0.625 c -1.75643,-2.0580955 -2.77292,-4.0236983 -1.875,-5.7499995 l 5.75,-10.6249999 31.625,-0.125 6.875,13.4999999 c 1.32718,2.0481899 -0.95397,1.9787916 -2.5,2.7499995 l -6.5,0.625 0.25,3.5 31.75,-0.25 0,-3.125 -7.875,-0.375 c -2.15069,-0.09607 -3.18206,-2.0576794 -4.375,-3.7499995 l -28,-56.3749995 c 0,0 -0.56619,-0.52865 -1.49023,-0.730469 z m -4.50977,11.105469 14.75,28.9999996 -28.25,0 13.5,-28.9999996 z"
           id="path10273"
           inkscape:connector-curvature="0" />
      </g>
    </g>
  </g>
</svg>
