<?xml version="1.0" encoding="UTF-8" standalone="no"?>
<!-- Created with Inkscape (http://www.inkscape.org/) -->

<svg
   xmlns:dc="http://purl.org/dc/elements/1.1/"
   xmlns:cc="http://creativecommons.org/ns#"
   xmlns:rdf="http://www.w3.org/1999/02/22-rdf-syntax-ns#"
   xmlns:svg="http://www.w3.org/2000/svg"
   xmlns="http://www.w3.org/2000/svg"
   xmlns:sodipodi="http://sodipodi.sourceforge.net/DTD/sodipodi-0.dtd"
   xmlns:inkscape="http://www.inkscape.org/namespaces/inkscape"
   width="55.541893mm"
   height="56.078392mm"
   viewBox="0 0 196.80198 198.70296"
   id="svg2"
   version="1.1"
   inkscape:version="0.91 r13725"
   sodipodi:docname="tec-logo.svg">
  <defs
     id="defs4" />
  <sodipodi:namedview
     id="base"
     pagecolor="#ffffff"
     bordercolor="#666666"
     borderopacity="1.0"
     inkscape:pageopacity="0.0"
     inkscape:pageshadow="2"
     inkscape:zoom="1.0520833"
     inkscape:cx="-67.480185"
     inkscape:cy="258.38976"
     inkscape:document-units="px"
     inkscape:current-layer="layer1"
     showgrid="false"
     showguides="true"
     inkscape:guide-bbox="true"
     inkscape:window-width="1440"
     inkscape:window-height="804"
     inkscape:window-x="0"
     inkscape:window-y="1"
     inkscape:window-maximized="1"
     fit-margin-top="0"
     fit-margin-left="0"
     fit-margin-right="0"
     fit-margin-bottom="0" />
  <metadata
     id="metadata7">
    <rdf:RDF>
      <cc:Work
         rdf:about="">
        <dc:format>image/svg+xml</dc:format>
        <dc:type
           rdf:resource="http://purl.org/dc/dcmitype/StillImage" />
        <dc:title></dc:title>
      </cc:Work>
    </rdf:RDF>
  </metadata>
  <g
     inkscape:label="Layer 1"
     inkscape:groupmode="layer"
     id="layer1"
     transform="translate(-388.25247,-348.59488)">
    <path
       style="fill:#0033a0;fill-opacity:1;fill-rule:evenodd;stroke:#0033a0;stroke-width:1px;stroke-linecap:butt;stroke-linejoin:miter;stroke-opacity:1"
       d="m 388.75247,350.04537 0,196.75248 195.80198,0 0,-197.70297 -195.80198,0 z"
       id="path4684"
       inkscape:connector-curvature="0" />
    <g
       id="g4677"
       style="fill:#ffffff;stroke:#ffffff">
      <path
         style="fill:#ffffff;fill-rule:evenodd;stroke:#ffffff;stroke-width:1px;stroke-linecap:butt;stroke-linejoin:miter;stroke-opacity:1"
         d="m 410.76408,417.51211 -0.16803,19.82699 10.24955,0 1.66337,-6.72102 4.21753,0 0.50407,29.90852 -6.21695,0 0.16803,12.76993 24.19566,0 0,-12.93795 -5.71286,0 -0.16803,-29.90852 4.10716,0 2.78189,6.88904 9.74547,0 0,-19.99502 z"
         id="path4661"
         inkscape:connector-curvature="0"
         sodipodi:nodetypes="ccccccccccccccccc" />
      <path
         sodipodi:nodetypes="cccccccccccc"
         inkscape:connector-curvature="0"
         id="path4669"
         d="m 563.81453,417.21863 0.23762,17.21313 -11.17121,-0.23763 0,-4.20557 c -9.90087,-2.23812 -14.51083,-1.64266 -22.1147,3.08911 -7.54383,8.63818 -6.44145,16.44178 0,23.32464 7.71817,4.78171 12.18038,5.50363 22.1147,3.32674 l 0,-4.44321 10.62637,-0.23762 0.23763,17.9956 c -42.15372,2.61286 -50.72208,-1.73886 -50.28737,-27.54796 -0.4728,-27.43224 9.69819,-30.48593 50.35696,-28.27723 z"
         style="fill:#ffffff;fill-rule:evenodd;stroke:#ffffff;stroke-width:1px;stroke-linecap:butt;stroke-linejoin:miter;stroke-opacity:1" />
      <path
         sodipodi:nodetypes="cccccccccccccccccccccc"
         inkscape:connector-curvature="0"
         id="path4671"
         d="m 507.21065,417.3228 0,20.16304 -9.40942,0 -3.36051,-6.88904 -15.31914,0 0.19685,6.04892 11.08968,0.33605 0.084,17.28798 -10.88087,0.10863 0.0432,5.95892 14.45018,0 3.36051,-7.22509 10.24955,0 0,19.65897 -45.87093,0 0.33605,-12.62291 4.36866,-0.18903 c 0,-4.60669 0.33605,-30.11854 0.33605,-30.11854 l -4.70471,-0.21004 0,-12.13983 45.0308,0 z"
         style="fill:#ffffff;fill-rule:evenodd;stroke:#ffffff;stroke-width:1px;stroke-linecap:butt;stroke-linejoin:miter;stroke-opacity:1" />
    </g>
  </g>
</svg>
